<?xml version="1.0"?>
<!DOCTYPE svg PUBLIC "-//W3C//DTD SVG 1.1//EN" "http://www.w3.org/Graphics/SVG/1.1/DTD/svg11.dtd"> 
<svg xmlns="http://www.w3.org/2000/svg" version="1.1" width="128px" height="128px" id="RSSicon" viewBox="0 0 256 256">
<defs>
<linearGradient x1="0.085" y1="0.085" x2="0.915" y2="0.915" id="RSSg">
<stop  offset="0.0" stop-color="#808080"/><stop  offset="0.2785" stop-color="#929292"/>
<stop  offset="0.5" stop-color="#9B9B9B"/><stop  offset="0.5871" stop-color="#919191"/>
<stop  offset="0.8427" stop-color="#797979"/><stop  offset="1.0" stop-color="#707070"/>
</linearGradient>
</defs>
<rect width="256" height="256" rx="55" ry="55" x="0"  y="0"  fill="#777777"/>
<rect width="246" height="246" rx="50" ry="50" x="5"  y="5"  fill="#999999"/>
<rect width="236" height="236" rx="47" ry="47" x="10" y="10" fill="url(#RSSg)"/>
<circle cx="68" cy="189" r="24" fill="#FFF"/>
<path d="M160 213h-34a82 82 0 0 0 -82 -82v-34a116 116 0 0 1 116 116z" fill="#FFF"/>
<path d="M184 213A140 140 0 0 0 44 73 V 38a175 175 0 0 1 175 175z" fill="#FFF"/>
</svg>
